<?xml version="1.0" encoding="utf-8"?>
<!-- Generator: Adobe Illustrator 17.0.0, SVG Export Plug-In . SVG Version: 6.00 Build 0)  -->
<!DOCTYPE svg PUBLIC "-//W3C//DTD SVG 1.1//EN" "http://www.w3.org/Graphics/SVG/1.1/DTD/svg11.dtd">
<svg version="1.1" xmlns="http://www.w3.org/2000/svg" xmlns:xlink="http://www.w3.org/1999/xlink" x="0px" y="0px" width="200px"
height="200px" viewBox="0 0 800 800" enable-background="new 0 0 800 800" xml:space="preserve">
	<g id="Background">
		<g opacity="0.5">
			<path fill="#F9988C" d="M375.768,157.105c7.487-8.136,19.737-8.136,27.224,0c7.487,8.136,21.2,9.868,30.475,3.85
			c9.274-6.019,21.14-2.972,26.367,6.77c5.227,9.742,18.079,14.83,28.56,11.308c10.479-3.523,21.214,2.379,23.855,13.115
			c2.641,10.736,13.822,18.861,24.85,18.055c11.027-0.806,19.957,7.58,19.845,18.636c-0.112,11.055,8.698,21.705,19.579,23.667
			c10.88,1.961,17.444,12.305,14.587,22.985s3.028,23.187,13.079,27.793c10.05,4.606,13.836,16.257,8.411,25.891
			c-5.425,9.634-2.834,23.211,5.756,30.172c8.59,6.96,9.359,19.187,1.71,27.169c-7.65,7.983-8.519,21.778-1.93,30.656
			c6.59,8.879,4.294,20.912-5.1,26.74c-9.395,5.829-13.666,18.976-9.492,29.213c4.173,10.238-1.043,21.323-11.592,24.633
			c-10.549,3.31-17.955,14.98-16.459,25.934c1.497,10.955-6.311,20.393-17.352,20.976c-11.041,0.582-21.117,10.044-22.391,21.026
			c-1.274,10.983-11.185,18.184-22.023,16.002c-10.838-2.182-22.951,4.477-26.917,14.797s-15.357,14.831-25.312,10.022
			c-9.956-4.809-23.344-1.371-29.752,7.639c-6.408,9.01-18.561,10.545-27.009,3.412c-8.447-7.133-22.27-7.133-30.717,0
			c-8.447,7.133-20.601,5.598-27.008-3.412c-6.407-9.01-19.795-12.447-29.751-7.639c-9.956,4.809-21.346,0.298-25.312-10.022
			c-3.965-10.32-16.078-16.979-26.916-14.797c-10.838,2.182-20.75-5.019-22.024-16.002c-1.274-10.982-11.351-20.444-22.392-21.026
			c-11.041-0.582-18.849-10.021-17.353-20.976c1.497-10.954-5.909-22.625-16.458-25.934c-10.549-3.31-15.765-14.395-11.591-24.633
			c4.174-10.238-0.098-23.385-9.492-29.213c-9.395-5.829-11.69-17.862-5.102-26.74c6.589-8.879,5.721-22.674-1.929-30.656
			c-7.649-7.982-6.88-20.209,1.71-27.169c8.589-6.961,11.179-20.538,5.755-30.172c-5.424-9.634-1.638-21.285,8.413-25.891
			c10.051-4.606,15.936-17.113,13.078-27.793c-2.857-10.68,3.706-21.023,14.587-22.985c10.88-1.962,19.691-12.612,19.579-23.667
			c-0.112-11.056,8.818-19.441,19.845-18.636c11.027,0.805,22.209-7.319,24.85-18.055c2.641-10.736,13.376-16.637,23.855-13.114
			c10.479,3.522,23.331-1.565,28.559-11.308c5.228-9.741,17.094-12.788,26.368-6.77C354.568,166.973,368.281,165.24,375.768,157.105
			z"/>
		</g>
		<g display="none" opacity="0.5">
			<g>
				<path display="inline" fill="#4B4B4B" d="M286.024,774.285v-0.256c-0.349,0.398-0.692,0.723-1.031,0.973
				c-0.338,0.25-0.706,0.441-1.102,0.57c-0.396,0.131-0.827,0.195-1.296,0.195c-0.621,0-1.196-0.131-1.725-0.394
				c-0.528-0.262-0.986-0.639-1.372-1.125c-0.387-0.488-0.68-1.061-0.879-1.719c-0.199-0.66-0.299-1.371-0.299-2.137
				c0-1.621,0.396-2.887,1.188-3.791s1.833-1.357,3.125-1.357c0.747,0,1.377,0.129,1.89,0.383c0.513,0.258,1.013,0.652,1.501,1.184
				v-3.828c0-0.531,0.105-0.934,0.318-1.205c0.211-0.273,0.514-0.408,0.907-0.408c0.393,0,0.694,0.125,0.907,0.375
				c0.212,0.25,0.318,0.617,0.318,1.105v11.436c0,0.494-0.113,0.865-0.342,1.111c-0.228,0.246-0.522,0.371-0.883,0.371
				c-0.355,0-0.647-0.129-0.879-0.385C286.139,775.125,286.024,774.76,286.024,774.285z M280.923,770.477
				c0,0.703,0.109,1.301,0.328,1.795c0.219,0.494,0.518,0.867,0.897,1.115c0.38,0.252,0.795,0.377,1.244,0.377
				c0.456,0,0.872-0.119,1.25-0.357c0.376-0.236,0.677-0.602,0.902-1.09c0.225-0.492,0.337-1.105,0.337-1.84
				c0-0.69-0.112-1.283-0.337-1.781c-0.225-0.496-0.528-0.877-0.912-1.141c-0.383-0.262-0.803-0.393-1.258-0.393
				c-0.475,0-0.899,0.135-1.273,0.404c-0.374,0.268-0.663,0.654-0.869,1.158C281.026,769.229,280.923,769.812,280.923,770.477z"/>
				<path display="inline" fill="#4B4B4B" d="M297.457,771.133h-5.071c0.006,0.588,0.125,1.107,0.357,1.557
				c0.23,0.451,0.538,0.789,0.921,1.018c0.383,0.229,0.806,0.34,1.268,0.34c0.31,0,0.593-0.035,0.85-0.107
				c0.257-0.074,0.505-0.186,0.746-0.342c0.241-0.154,0.462-0.322,0.665-0.5c0.202-0.178,0.464-0.418,0.788-0.723
				c0.133-0.113,0.323-0.17,0.571-0.17c0.266,0,0.48,0.074,0.645,0.219c0.165,0.146,0.248,0.352,0.248,0.617
				c0,0.234-0.093,0.508-0.275,0.822c-0.185,0.312-0.462,0.613-0.832,0.902c-0.372,0.287-0.835,0.525-1.397,0.717
				c-0.56,0.189-1.204,0.285-1.933,0.285c-1.664,0-2.96-0.477-3.884-1.426c-0.924-0.949-1.386-2.238-1.386-3.865
				c0-0.766,0.113-1.477,0.341-2.131c0.229-0.656,0.561-1.219,0.997-1.688c0.437-0.469,0.975-0.826,1.615-1.078
				c0.639-0.25,1.349-0.373,2.128-0.373c1.013,0,1.882,0.211,2.606,0.641c0.726,0.426,1.27,0.978,1.63,1.656
				c0.36,0.678,0.542,1.369,0.542,2.07c0,0.652-0.187,1.074-0.56,1.27C298.662,771.035,298.136,771.133,297.457,771.133z
				M292.386,769.66h4.702c-0.062-0.887-0.303-1.551-0.717-1.99c-0.415-0.439-0.96-0.66-1.638-0.66c-0.646,0-1.177,0.223-1.591,0.67
				C292.727,768.125,292.476,768.787,292.386,769.66z"/>
				<path display="inline" fill="#4B4B4B" d="M309.272,772.375c0,0.717-0.173,1.33-0.522,1.84c-0.348,0.51-0.862,0.896-1.544,1.158
				c-0.68,0.264-1.508,0.394-2.483,0.394c-0.931,0-1.729-0.143-2.393-0.428c-0.665-0.285-1.156-0.643-1.472-1.068
				c-0.317-0.428-0.475-0.855-0.475-1.287c0-0.285,0.101-0.529,0.304-0.73c0.202-0.203,0.459-0.305,0.769-0.305
				c0.272,0,0.48,0.066,0.626,0.199c0.146,0.133,0.286,0.32,0.418,0.56c0.266,0.463,0.585,0.807,0.956,1.035
				c0.37,0.229,0.875,0.342,1.515,0.342c0.519,0,0.945-0.115,1.277-0.346c0.332-0.232,0.498-0.496,0.498-0.795
				c0-0.455-0.172-0.787-0.518-0.996c-0.345-0.209-0.914-0.408-1.705-0.6c-0.892-0.221-1.619-0.453-2.18-0.697
				c-0.561-0.242-1.008-0.565-1.344-0.963c-0.335-0.4-0.503-0.891-0.503-1.473c0-0.519,0.155-1.01,0.465-1.473
				c0.311-0.461,0.768-0.83,1.374-1.106c0.604-0.277,1.333-0.414,2.188-0.414c0.671,0,1.275,0.068,1.809,0.209
				c0.536,0.139,0.983,0.326,1.34,0.561c0.358,0.234,0.63,0.494,0.816,0.777c0.186,0.285,0.28,0.565,0.28,0.838
				c0,0.297-0.1,0.541-0.298,0.731c-0.199,0.189-0.482,0.285-0.851,0.285c-0.266,0-0.492-0.076-0.679-0.229
				c-0.187-0.152-0.4-0.379-0.641-0.684c-0.196-0.252-0.426-0.455-0.693-0.607c-0.266-0.152-0.627-0.229-1.083-0.229
				c-0.469,0-0.857,0.1-1.168,0.301c-0.31,0.197-0.465,0.445-0.465,0.744c0,0.273,0.114,0.496,0.341,0.67
				c0.229,0.174,0.535,0.318,0.922,0.432c0.386,0.113,0.917,0.252,1.596,0.418c0.803,0.197,1.46,0.432,1.97,0.703
				c0.509,0.271,0.896,0.594,1.16,0.965C309.142,771.479,309.272,771.9,309.272,772.375z"/>
				<path display="inline" fill="#4B4B4B" d="M311.921,764.02c-0.361,0-0.669-0.111-0.926-0.334c-0.256-0.221-0.385-0.533-0.385-0.94
				c0-0.369,0.131-0.67,0.394-0.908s0.569-0.355,0.917-0.355c0.336,0,0.633,0.107,0.893,0.322c0.26,0.217,0.39,0.529,0.39,0.941
				c0,0.398-0.127,0.711-0.381,0.936C312.57,763.906,312.269,764.02,311.921,764.02z M313.204,766.697v7.492
				c0,0.519-0.124,0.914-0.371,1.18c-0.248,0.266-0.56,0.398-0.94,0.398c-0.38,0-0.689-0.137-0.926-0.408
				c-0.238-0.273-0.356-0.662-0.356-1.17v-7.418c0-0.512,0.118-0.898,0.356-1.158c0.237-0.26,0.546-0.389,0.926-0.389
				c0.38,0,0.693,0.129,0.94,0.389C313.081,765.873,313.204,766.234,313.204,766.697z"/>
				<path display="inline" fill="#4B4B4B" d="M324.563,767.125v7.531c0,0.861-0.093,1.602-0.277,2.223
				c-0.182,0.619-0.477,1.133-0.883,1.539c-0.405,0.404-0.936,0.705-1.59,0.9c-0.655,0.197-1.471,0.295-2.446,0.295
				c-0.893,0-1.69-0.125-2.394-0.375c-0.702-0.25-1.243-0.572-1.624-0.969c-0.379-0.395-0.57-0.803-0.57-1.221
				c0-0.316,0.108-0.574,0.324-0.773c0.215-0.199,0.475-0.299,0.778-0.299c0.38,0,0.712,0.168,0.997,0.502
				c0.139,0.172,0.283,0.346,0.432,0.52c0.149,0.174,0.314,0.322,0.494,0.447c0.181,0.121,0.398,0.213,0.65,0.273
				c0.253,0.059,0.545,0.09,0.874,0.09c0.671,0,1.192-0.092,1.563-0.279c0.371-0.188,0.63-0.449,0.779-0.785
				c0.149-0.334,0.236-0.693,0.261-1.076c0.025-0.385,0.044-1,0.057-1.85c-0.399,0.559-0.859,0.984-1.382,1.275
				c-0.522,0.291-1.145,0.435-1.866,0.435c-0.868,0-1.625-0.221-2.275-0.664c-0.648-0.443-1.147-1.065-1.495-1.861
				c-0.349-0.799-0.522-1.719-0.522-2.764c0-0.779,0.105-1.482,0.317-2.109c0.213-0.627,0.515-1.156,0.907-1.586
				c0.393-0.432,0.845-0.756,1.358-0.975c0.513-0.217,1.076-0.326,1.691-0.326c0.734,0,1.371,0.141,1.909,0.422
				c0.538,0.283,1.039,0.725,1.501,1.326v-0.354c0-0.449,0.11-0.797,0.332-1.045c0.222-0.246,0.507-0.369,0.855-0.369
				c0.5,0,0.832,0.164,0.996,0.488C324.48,766.039,324.563,766.51,324.563,767.125z M317.05,770.41c0,1.051,0.229,1.846,0.688,2.385
				c0.459,0.539,1.053,0.807,1.781,0.807c0.43,0,0.837-0.115,1.22-0.346c0.384-0.232,0.695-0.58,0.936-1.045
				c0.24-0.467,0.361-1.031,0.361-1.695c0-1.057-0.232-1.881-0.698-2.469c-0.466-0.59-1.078-0.885-1.838-0.885
				c-0.741,0-1.334,0.283-1.78,0.846C317.272,768.57,317.05,769.373,317.05,770.41z"/>
				<path display="inline" fill="#4B4B4B" d="M328.684,766.658v0.315c0.455-0.602,0.954-1.043,1.496-1.326
				c0.542-0.281,1.163-0.422,1.866-0.422c0.684,0,1.295,0.148,1.833,0.447c0.538,0.297,0.941,0.719,1.206,1.262
				c0.172,0.316,0.282,0.66,0.333,1.025c0.051,0.369,0.077,0.836,0.077,1.406v4.824c0,0.519-0.119,0.914-0.357,1.18
				c-0.237,0.266-0.546,0.398-0.926,0.398c-0.387,0-0.7-0.137-0.94-0.408c-0.241-0.273-0.361-0.662-0.361-1.17v-4.32
				c0-0.856-0.119-1.51-0.357-1.961c-0.238-0.453-0.71-0.68-1.42-0.68c-0.461,0-0.883,0.137-1.263,0.412
				c-0.38,0.277-0.659,0.656-0.836,1.137c-0.126,0.387-0.19,1.107-0.19,2.164v3.248c0,0.525-0.122,0.922-0.365,1.184
				c-0.244,0.264-0.559,0.394-0.945,0.394c-0.374,0-0.681-0.137-0.922-0.408c-0.24-0.273-0.361-0.662-0.361-1.17v-7.492
				c0-0.494,0.107-0.863,0.323-1.107c0.215-0.244,0.51-0.365,0.883-0.365c0.229,0,0.435,0.053,0.619,0.162
				c0.183,0.107,0.331,0.27,0.441,0.482C328.628,766.086,328.684,766.35,328.684,766.658z"/>
				<path display="inline" fill="#4B4B4B" d="M344.458,771.133h-5.071c0.007,0.588,0.124,1.107,0.356,1.557
				c0.231,0.451,0.538,0.789,0.921,1.018c0.382,0.229,0.805,0.34,1.267,0.34c0.311,0,0.594-0.035,0.851-0.107
				c0.255-0.074,0.504-0.186,0.746-0.342c0.24-0.154,0.461-0.322,0.665-0.5c0.202-0.178,0.464-0.418,0.788-0.723
				c0.133-0.113,0.323-0.17,0.57-0.17c0.266,0,0.481,0.074,0.646,0.219c0.164,0.146,0.247,0.352,0.247,0.617
				c0,0.234-0.091,0.508-0.275,0.822c-0.184,0.312-0.461,0.613-0.832,0.902c-0.371,0.287-0.835,0.525-1.395,0.717
				c-0.561,0.189-1.205,0.285-1.933,0.285c-1.665,0-2.96-0.477-3.885-1.426c-0.923-0.949-1.386-2.238-1.386-3.865
				c0-0.766,0.114-1.477,0.342-2.131c0.228-0.656,0.561-1.219,0.998-1.688c0.436-0.469,0.975-0.826,1.614-1.078
				c0.639-0.25,1.349-0.373,2.128-0.373c1.013,0,1.881,0.211,2.606,0.641c0.726,0.426,1.269,0.978,1.63,1.656
				c0.36,0.678,0.542,1.369,0.542,2.07c0,0.652-0.186,1.074-0.56,1.27C345.662,771.035,345.136,771.133,344.458,771.133z
				M339.387,769.66h4.701c-0.063-0.887-0.302-1.551-0.717-1.99c-0.415-0.439-0.961-0.66-1.638-0.66
				c-0.647,0-1.177,0.223-1.592,0.67C339.726,768.125,339.476,768.787,339.387,769.66z"/>
				<path display="inline" fill="#4B4B4B" d="M355.028,774.285v-0.256c-0.348,0.398-0.691,0.723-1.03,0.973
				c-0.339,0.25-0.706,0.441-1.102,0.57c-0.395,0.131-0.828,0.195-1.296,0.195c-0.622,0-1.196-0.131-1.724-0.394
				c-0.529-0.262-0.986-0.639-1.373-1.125c-0.387-0.488-0.679-1.061-0.878-1.719c-0.2-0.66-0.299-1.371-0.299-2.137
				c0-1.621,0.396-2.887,1.187-3.791c0.792-0.904,1.834-1.357,3.125-1.357c0.747,0,1.377,0.129,1.89,0.383
				c0.513,0.258,1.013,0.652,1.5,1.184v-3.828c0-0.531,0.107-0.934,0.319-1.205c0.211-0.273,0.515-0.408,0.907-0.408
				c0.392,0,0.694,0.125,0.907,0.375c0.212,0.25,0.318,0.617,0.318,1.105v11.436c0,0.494-0.114,0.865-0.342,1.111
				s-0.522,0.371-0.883,0.371c-0.354,0-0.647-0.129-0.879-0.385C355.144,775.125,355.028,774.76,355.028,774.285z M349.928,770.477
				c0,0.703,0.108,1.301,0.327,1.795c0.218,0.494,0.518,0.867,0.898,1.115c0.379,0.252,0.794,0.377,1.243,0.377
				c0.456,0,0.873-0.119,1.249-0.357c0.377-0.236,0.678-0.602,0.902-1.09c0.225-0.492,0.337-1.105,0.337-1.84
				c0-0.69-0.112-1.283-0.337-1.781c-0.224-0.496-0.528-0.877-0.912-1.141c-0.384-0.262-0.803-0.393-1.259-0.393
				c-0.474,0-0.899,0.135-1.272,0.404c-0.373,0.268-0.663,0.654-0.869,1.158C350.03,769.229,349.928,769.812,349.928,770.477z"/>
				<path display="inline" fill="#4B4B4B" d="M365.626,762.85v3.961c0.487-0.506,0.984-0.895,1.491-1.164
				c0.506-0.268,1.134-0.402,1.881-0.402c0.861,0,1.616,0.203,2.266,0.611c0.648,0.41,1.151,1.002,1.51,1.777
				c0.358,0.773,0.537,1.695,0.537,2.76c0,0.785-0.1,1.504-0.299,2.16c-0.2,0.654-0.49,1.223-0.869,1.703
				c-0.38,0.482-0.841,0.855-1.382,1.117c-0.542,0.264-1.139,0.394-1.791,0.394c-0.399,0-0.775-0.047-1.125-0.143
				c-0.352-0.096-0.651-0.219-0.898-0.375c-0.246-0.154-0.457-0.314-0.631-0.48c-0.174-0.164-0.404-0.412-0.689-0.74v0.256
				c0,0.488-0.117,0.857-0.352,1.107c-0.233,0.25-0.531,0.375-0.893,0.375c-0.367,0-0.66-0.125-0.878-0.375
				c-0.219-0.25-0.328-0.619-0.328-1.107v-11.322c0-0.525,0.106-0.922,0.317-1.191c0.212-0.268,0.509-0.402,0.889-0.402
				c0.4,0,0.706,0.127,0.921,0.383C365.518,762.01,365.626,762.375,365.626,762.85z M365.749,770.553
				c0,1.033,0.236,1.824,0.708,2.379c0.472,0.555,1.091,0.832,1.857,0.832c0.652,0,1.214-0.283,1.685-0.85
				c0.472-0.568,0.708-1.379,0.708-2.438c0-0.684-0.097-1.273-0.294-1.766c-0.197-0.494-0.475-0.877-0.836-1.145
				c-0.361-0.27-0.783-0.404-1.264-0.404c-0.494,0-0.935,0.135-1.32,0.404c-0.386,0.268-0.69,0.658-0.912,1.168
				C365.86,769.242,365.749,769.85,365.749,770.553z"/>
				<path display="inline" fill="#4B4B4B" d="M376.672,776.09l0.237-0.58l-3.191-8.035c-0.196-0.461-0.295-0.797-0.295-1.006
				c0-0.223,0.058-0.428,0.171-0.617c0.114-0.19,0.271-0.342,0.47-0.455c0.2-0.115,0.407-0.172,0.622-0.172
				c0.373,0,0.655,0.119,0.846,0.355c0.191,0.238,0.357,0.578,0.503,1.022l2.194,6.383l2.08-5.938
				c0.164-0.478,0.313-0.857,0.446-1.129c0.133-0.273,0.273-0.457,0.422-0.551c0.148-0.096,0.359-0.143,0.632-0.143
				c0.197,0,0.385,0.051,0.565,0.156c0.18,0.105,0.319,0.246,0.418,0.424c0.098,0.176,0.148,0.363,0.148,0.559
				c-0.026,0.121-0.066,0.291-0.124,0.514c-0.058,0.221-0.126,0.447-0.208,0.674l-3.381,8.854c-0.292,0.777-0.577,1.389-0.855,1.832
				c-0.279,0.443-0.647,0.785-1.107,1.021c-0.459,0.238-1.078,0.355-1.857,0.355c-0.759,0-1.33-0.082-1.708-0.246
				c-0.381-0.166-0.57-0.467-0.57-0.902c0-0.297,0.089-0.527,0.271-0.69c0.18-0.16,0.448-0.242,0.801-0.242
				c0.14,0,0.276,0.02,0.409,0.059c0.165,0.037,0.307,0.057,0.427,0.057c0.297,0,0.532-0.045,0.704-0.135
				c0.17-0.088,0.324-0.24,0.461-0.461C376.337,776.836,376.495,776.514,376.672,776.09z"/>
			</g>
			<g>
				<path display="inline" fill="#4B4B4B" d="M414.234,765.449h0.619v-0.779c0-0.814,0.1-1.457,0.307-1.938
				c0.203-0.479,0.555-0.826,1.047-1.045c0.49-0.217,1.162-0.326,2.016-0.326c1.52,0,2.273,0.367,2.273,1.115
				c0,0.238-0.08,0.443-0.24,0.615c-0.154,0.168-0.344,0.256-0.559,0.256c-0.1,0-0.277-0.02-0.527-0.061
				c-0.236-0.033-0.451-0.055-0.623-0.055c-0.467,0-0.766,0.141-0.904,0.414c-0.127,0.275-0.195,0.67-0.195,1.186v0.617h0.633
				c0.99,0,1.48,0.297,1.48,0.895c0,0.42-0.127,0.691-0.392,0.805c-0.262,0.115-0.623,0.172-1.088,0.172h-0.633v6.871
				c0,0.51-0.121,0.9-0.369,1.168c-0.242,0.272-0.555,0.406-0.943,0.406c-0.367,0-0.67-0.135-0.918-0.406
				c-0.244-0.268-0.363-0.658-0.363-1.168v-6.871h-0.715c-0.389,0-0.682-0.084-0.893-0.262c-0.209-0.172-0.314-0.4-0.314-0.678
				C412.932,765.756,413.365,765.449,414.234,765.449"/>
				<path display="inline" fill="#4B4B4B" d="M422.725,772.023v2.168c0,0.523-0.133,0.918-0.375,1.18
				c-0.246,0.266-0.559,0.395-0.938,0.395c-0.381,0-0.688-0.131-0.926-0.4c-0.236-0.264-0.361-0.656-0.361-1.174v-7.223
				c0-1.166,0.42-1.75,1.262-1.75c0.434,0,0.742,0.135,0.934,0.408c0.189,0.273,0.295,0.674,0.316,1.209
				c0.309-0.535,0.625-0.936,0.949-1.209c0.332-0.273,0.762-0.408,1.309-0.408c0.549,0,1.072,0.135,1.586,0.408
				c0.516,0.273,0.772,0.637,0.772,1.086c0,0.315-0.111,0.58-0.326,0.781c-0.221,0.209-0.455,0.31-0.707,0.31
				c-0.1,0-0.33-0.062-0.691-0.18c-0.365-0.113-0.689-0.172-0.963-0.172c-0.381,0-0.693,0.102-0.932,0.297
				c-0.242,0.205-0.432,0.498-0.564,0.887c-0.129,0.395-0.219,0.865-0.273,1.404C422.746,770.584,422.725,771.244,422.725,772.023"
				/>
				<path display="inline" fill="#4B4B4B" d="M434.645,771.131h-5.074c0.01,0.588,0.125,1.109,0.355,1.559
				c0.234,0.445,0.539,0.785,0.924,1.016c0.385,0.229,0.805,0.34,1.27,0.34c0.311,0,0.592-0.033,0.85-0.111
				c0.254-0.068,0.504-0.185,0.744-0.34c0.242-0.152,0.461-0.318,0.664-0.5c0.203-0.176,0.467-0.416,0.791-0.719
				c0.135-0.113,0.324-0.174,0.568-0.174c0.268,0,0.48,0.074,0.648,0.221c0.166,0.148,0.244,0.352,0.244,0.617
				c0,0.236-0.09,0.508-0.268,0.82c-0.188,0.316-0.463,0.615-0.836,0.906c-0.375,0.285-0.84,0.527-1.398,0.713
				c-0.559,0.191-1.205,0.287-1.932,0.287c-1.67,0-2.963-0.473-3.887-1.422c-0.924-0.953-1.391-2.242-1.391-3.869
				c0-0.766,0.117-1.479,0.348-2.135c0.225-0.658,0.557-1.215,0.998-1.688c0.435-0.471,0.971-0.828,1.613-1.078
				c0.637-0.248,1.346-0.373,2.127-0.373c1.012,0,1.881,0.213,2.607,0.645c0.723,0.424,1.273,0.977,1.629,1.654
				c0.361,0.682,0.541,1.369,0.541,2.074c0,0.648-0.188,1.07-0.561,1.266C435.848,771.033,435.322,771.131,434.645,771.131
				M429.57,769.656h4.701c-0.062-0.885-0.297-1.551-0.713-1.986c-0.418-0.443-0.959-0.66-1.641-0.66
				c-0.646,0-1.178,0.219-1.592,0.668C429.912,768.125,429.658,768.783,429.57,769.656"/>
				<path display="inline" fill="#4B4B4B" d="M445.432,771.131h-5.072c0.006,0.588,0.125,1.109,0.353,1.559
				c0.232,0.445,0.539,0.785,0.922,1.016c0.383,0.229,0.805,0.34,1.272,0.34c0.307,0,0.592-0.033,0.844-0.111
				c0.26-0.068,0.506-0.185,0.75-0.34c0.242-0.152,0.461-0.318,0.664-0.5c0.199-0.176,0.465-0.416,0.789-0.719
				c0.135-0.113,0.326-0.174,0.568-0.174c0.268,0,0.482,0.074,0.65,0.221c0.164,0.148,0.24,0.352,0.24,0.617
				c0,0.236-0.088,0.508-0.273,0.82c-0.178,0.316-0.455,0.615-0.83,0.906c-0.371,0.285-0.84,0.527-1.396,0.713
				c-0.557,0.191-1.207,0.287-1.934,0.287c-1.668,0-2.959-0.473-3.887-1.422c-0.924-0.953-1.389-2.242-1.389-3.869
				c0-0.766,0.115-1.479,0.348-2.135c0.227-0.658,0.559-1.215,0.996-1.688c0.435-0.471,0.973-0.828,1.613-1.078
				c0.639-0.248,1.352-0.373,2.129-0.373c1.01,0,1.879,0.213,2.613,0.645c0.721,0.424,1.266,0.977,1.621,1.654
				c0.359,0.682,0.545,1.369,0.545,2.074c0,0.648-0.191,1.07-0.561,1.266C446.633,771.033,446.107,771.131,445.432,771.131
				M440.359,769.656h4.701c-0.064-0.885-0.305-1.551-0.715-1.986c-0.422-0.443-0.963-0.66-1.643-0.66
				c-0.646,0-1.176,0.219-1.594,0.668C440.697,768.125,440.443,768.783,440.359,769.656"/>
				<path display="inline" fill="#4B4B4B" d="M451.111,766.678v0.31c0.486-0.6,0.994-1.041,1.525-1.324
				c0.518-0.283,1.117-0.426,1.781-0.426c0.795,0,1.535,0.207,2.207,0.617c0.672,0.414,1.199,1.016,1.59,1.807
				c0.389,0.795,0.586,1.729,0.586,2.812c0,0.797-0.113,1.531-0.336,2.201c-0.225,0.668-0.537,1.227-0.93,1.68
				c-0.393,0.451-0.855,0.803-1.389,1.047c-0.543,0.24-1.111,0.363-1.729,0.363c-0.738,0-1.363-0.148-1.865-0.447
				c-0.502-0.293-0.982-0.734-1.441-1.307v3.893c0,1.137-0.416,1.711-1.244,1.711c-0.49,0-0.809-0.146-0.971-0.44
				c-0.152-0.299-0.234-0.725-0.234-1.291v-11.193c0-0.496,0.107-0.859,0.32-1.107c0.215-0.24,0.512-0.365,0.885-0.365
				c0.369,0,0.666,0.125,0.897,0.375C450.998,765.848,451.111,766.203,451.111,766.678 M456.195,770.445
				c0-0.684-0.105-1.273-0.314-1.762c-0.209-0.492-0.498-0.867-0.865-1.129c-0.367-0.262-0.783-0.396-1.232-0.396
				c-0.715,0-1.318,0.285-1.809,0.844c-0.492,0.566-0.74,1.396-0.74,2.494c0,1.025,0.244,1.832,0.736,2.406
				c0.486,0.572,1.086,0.857,1.812,0.857c0.428,0,0.83-0.125,1.197-0.371c0.371-0.254,0.664-0.627,0.883-1.127
				C456.084,771.76,456.195,771.154,456.195,770.445"/>
				<path display="inline" fill="#4B4B4B" d="M461.412,764.012c-0.363,0-0.67-0.113-0.924-0.334c-0.26-0.223-0.387-0.533-0.387-0.938
				c0-0.367,0.131-0.67,0.396-0.91c0.262-0.234,0.567-0.355,0.914-0.355c0.34,0,0.635,0.107,0.893,0.32
				c0.26,0.219,0.391,0.533,0.391,0.945c0,0.4-0.127,0.711-0.377,0.935C462.065,763.898,461.764,764.012,461.412,764.012
				M462.695,766.691v7.502c0,0.516-0.123,0.908-0.369,1.172c-0.25,0.27-0.561,0.4-0.941,0.4c-0.381,0-0.686-0.135-0.928-0.406
				c-0.234-0.277-0.355-0.666-0.355-1.166v-7.428c0-0.51,0.121-0.895,0.355-1.154c0.242-0.266,0.547-0.393,0.928-0.393
				c0.381,0,0.691,0.127,0.941,0.393C462.572,765.871,462.695,766.232,462.695,766.691"/>
				<path display="inline" fill="#4B4B4B" d="M471.055,774.582l-2.283-3.766l-1.408,1.328v2.064c0,0.5-0.133,0.883-0.397,1.15
				c-0.258,0.272-0.566,0.406-0.906,0.406c-0.398,0-0.715-0.131-0.941-0.4c-0.227-0.264-0.344-0.656-0.344-1.174v-11.064
				c0-0.572,0.115-1.01,0.332-1.312c0.223-0.305,0.545-0.453,0.953-0.453c0.399,0,0.713,0.137,0.949,0.412
				c0.234,0.27,0.354,0.674,0.354,1.201v6.293l2.916-3.062c0.361-0.375,0.633-0.641,0.826-0.777c0.189-0.139,0.42-0.209,0.689-0.209
				c0.326,0,0.594,0.104,0.816,0.309c0.211,0.207,0.32,0.467,0.32,0.773c0,0.379-0.354,0.889-1.055,1.522l-1.377,1.264l2.658,4.182
				c0.193,0.315,0.34,0.545,0.424,0.707c0.084,0.158,0.131,0.318,0.131,0.461c0,0.414-0.115,0.734-0.342,0.977
				c-0.225,0.236-0.523,0.354-0.885,0.354c-0.316,0-0.564-0.082-0.734-0.256C471.582,775.336,471.346,775.025,471.055,774.582"/>
				<path display="inline" fill="#4B4B4B" d="M476.691,775.766c-0.393,0-0.729-0.127-1.014-0.381c-0.285-0.25-0.43-0.606-0.43-1.065
				c0-0.387,0.139-0.719,0.41-0.996c0.275-0.279,0.607-0.418,1.008-0.418c0.399,0,0.736,0.139,1.024,0.412
				c0.279,0.275,0.422,0.611,0.422,1.002c0,0.451-0.142,0.807-0.422,1.059C477.402,775.639,477.07,775.766,476.691,775.766"/>
				<path display="inline" fill="#4B4B4B" d="M489.59,772.555c0,0.32-0.098,0.668-0.291,1.035c-0.191,0.369-0.488,0.717-0.887,1.049
				c-0.395,0.332-0.891,0.604-1.494,0.805c-0.602,0.201-1.281,0.307-2.031,0.307c-1.605,0-2.857-0.471-3.758-1.402
				c-0.895-0.936-1.346-2.19-1.346-3.76c0-1.066,0.205-2.006,0.619-2.824c0.408-0.814,1.004-1.447,1.781-1.893
				c0.779-0.449,1.717-0.67,2.795-0.67c0.674,0,1.287,0.098,1.852,0.295c0.56,0.195,1.033,0.451,1.426,0.758
				c0.387,0.315,0.686,0.645,0.889,0.992c0.207,0.352,0.309,0.682,0.309,0.988c0,0.307-0.113,0.57-0.344,0.787
				c-0.234,0.215-0.516,0.324-0.838,0.324c-0.219,0-0.399-0.057-0.541-0.166c-0.145-0.113-0.305-0.291-0.478-0.543
				c-0.318-0.479-0.647-0.842-0.996-1.078c-0.344-0.244-0.781-0.363-1.314-0.363c-0.762,0-1.383,0.299-1.854,0.898
				c-0.467,0.596-0.703,1.42-0.703,2.453c0,0.488,0.062,0.94,0.184,1.348c0.117,0.408,0.291,0.756,0.52,1.045
				c0.23,0.287,0.504,0.504,0.826,0.654c0.324,0.152,0.682,0.225,1.064,0.225c0.522,0,0.967-0.119,1.336-0.359
				c0.377-0.242,0.703-0.607,0.986-1.103c0.158-0.291,0.328-0.518,0.51-0.684c0.182-0.162,0.408-0.248,0.676-0.248
				c0.316,0,0.58,0.123,0.785,0.361C489.482,772.025,489.59,772.285,489.59,772.555"/>
				<path display="inline" fill="#4B4B4B" d="M500.779,770.494c0,0.769-0.121,1.484-0.355,2.139c-0.246,0.652-0.592,1.213-1.049,1.68
				c-0.455,0.469-1.002,0.828-1.633,1.08c-0.639,0.246-1.35,0.375-2.139,0.375c-0.785,0-1.492-0.129-2.121-0.383
				c-0.623-0.25-1.17-0.615-1.625-1.082c-0.461-0.477-0.809-1.035-1.053-1.678c-0.228-0.643-0.35-1.354-0.35-2.131
				c0-0.785,0.123-1.506,0.357-2.158c0.242-0.654,0.59-1.211,1.039-1.672c0.451-0.463,0.994-0.818,1.631-1.07
				c0.645-0.25,1.35-0.375,2.121-0.375c0.785,0,1.498,0.125,2.139,0.383c0.639,0.25,1.184,0.613,1.645,1.078
				c0.457,0.475,0.803,1.029,1.039,1.672C500.66,769.004,500.779,769.713,500.779,770.494 M498.176,770.494
				c0-1.059-0.234-1.881-0.697-2.469c-0.463-0.596-1.09-0.887-1.875-0.887c-0.508,0-0.955,0.131-1.342,0.393
				c-0.387,0.262-0.682,0.65-0.891,1.164c-0.209,0.514-0.314,1.113-0.314,1.799c0,0.68,0.102,1.268,0.309,1.773
				c0.209,0.512,0.502,0.898,0.887,1.166c0.385,0.268,0.834,0.404,1.351,0.404c0.785,0,1.412-0.295,1.875-0.891
				C497.941,772.356,498.176,771.535,498.176,770.494"/>
				<path display="inline" fill="#4B4B4B" d="M510.672,770.686v3.445c0,0.547-0.121,0.951-0.369,1.228
				c-0.25,0.272-0.572,0.408-0.979,0.408c-0.393,0-0.713-0.137-0.951-0.408c-0.246-0.277-0.371-0.682-0.371-1.228V770
				c0-0.652-0.022-1.162-0.065-1.523c-0.045-0.354-0.168-0.656-0.361-0.883c-0.197-0.236-0.51-0.352-0.932-0.352
				c-0.85,0-1.406,0.289-1.676,0.881c-0.268,0.576-0.406,1.412-0.406,2.506v3.502c0,0.539-0.123,0.947-0.361,1.225
				c-0.25,0.273-0.568,0.412-0.965,0.412c-0.396,0-0.717-0.139-0.967-0.412c-0.252-0.277-0.377-0.686-0.377-1.225v-7.418
				c0-0.49,0.111-0.861,0.336-1.111c0.229-0.258,0.525-0.383,0.889-0.383c0.357,0,0.652,0.123,0.893,0.355
				c0.236,0.238,0.354,0.566,0.354,0.984v0.246c0.453-0.535,0.935-0.932,1.445-1.182c0.516-0.26,1.082-0.385,1.713-0.385
				c0.65,0,1.211,0.131,1.678,0.389c0.469,0.262,0.854,0.656,1.16,1.178c0.439-0.529,0.908-0.924,1.41-1.182
				c0.5-0.256,1.053-0.385,1.662-0.385c0.705,0,1.32,0.143,1.834,0.418c0.51,0.279,0.893,0.68,1.146,1.195
				c0.221,0.473,0.33,1.211,0.33,2.217v5.062c0,0.547-0.121,0.951-0.367,1.228c-0.246,0.272-0.574,0.408-0.979,0.408
				c-0.394,0-0.715-0.139-0.965-0.412c-0.25-0.277-0.377-0.686-0.377-1.225v-4.361c0-0.559-0.023-1.002-0.068-1.338
				c-0.047-0.336-0.178-0.619-0.383-0.846c-0.213-0.229-0.531-0.344-0.953-0.344c-0.342,0-0.666,0.106-0.975,0.307
				c-0.307,0.199-0.547,0.477-0.721,0.812C510.77,768.801,510.672,769.574,510.672,770.686"/>
			</g>
			<g>
				<path display="inline" fill="#4B4B4B" d="M389.967,769.867c-0.002-0.006-0.002-0.01-0.002-0.018
				C389.965,769.857,389.965,769.861,389.967,769.867z"/>
				<path display="inline" fill="#4B4B4B" d="M390.098,770.695c0.002,0,0.002,0,0.003,0c-0.05-0.236-0.088-0.471-0.119-0.701
				C390.012,770.227,390.051,770.463,390.098,770.695z"/>
				<path display="inline" fill="#4B4B4B" d="M390.956,773.102c-0.006-0.01-0.011-0.022-0.017-0.033
				C390.945,773.08,390.95,773.092,390.956,773.102z"/>
				<path display="inline" fill="#4B4B4B" d="M390.874,772.941c-0.022-0.043-0.044-0.09-0.065-0.133
				C390.83,772.856,390.852,772.898,390.874,772.941z"/>
				<path display="inline" fill="#4B4B4B" d="M390.339,771.623c0.127,0.4,0.28,0.787,0.457,1.158c-0.18-0.379-0.33-0.768-0.454-1.158
				C390.341,771.623,390.34,771.623,390.339,771.623z"/>
				<path display="inline" fill="#4B4B4B" d="M400.004,759.93c0.501,0,0.871,0.041,1.294,0.111l0.121-0.762
				c0,0-1.171-0.361-2.711-0.234l-0.121-0.416c0.479-0.1,0.838-0.525,0.838-1.033c0-0.582-0.474-1.055-1.057-1.055
				c-0.583,0-1.056,0.473-1.056,1.055c0,0.508,0.358,0.934,0.836,1.033l0.134,0.463c-1.634,0.225-2.935,0.863-2.935,0.863
				l0.23,0.705c0.989-0.33,1.846-0.529,2.624-0.613C398.964,759.965,399.537,759.93,400.004,759.93z"/>
				<path display="inline" fill="#4B4B4B" d="M390.936,763.789l0.006-0.008c0.039-0.051,0.076-0.098,0.113-0.143l-0.313-0.227
				l-0.488-0.355c-0.027,0.037-0.795,0.744-1.401,2.047c-0.025-0.041-0.056-0.08-0.09-0.119c-0.182-0.197-0.436-0.299-0.758-0.293
				c-0.004,0-0.009,0-0.015,0c-0.2,0-0.337-0.066-0.427-0.148c0.089-0.113,0.143-0.256,0.143-0.412c0-0.369-0.3-0.67-0.669-0.67
				c-0.369,0-0.668,0.301-0.668,0.67c0,0.369,0.3,0.668,0.668,0.668c0.058,0,0.113-0.01,0.167-0.02
				c0.164,0.182,0.425,0.342,0.808,0.334c0.197-0.002,0.341,0.049,0.438,0.154c0.111,0.121,0.148,0.297,0.16,0.428
				c-0.001,0.002-0.001,0.006-0.003,0.006c-0.436,1.19-0.311,2.67-0.311,2.67l1.057,0.041c0.022-0.539,0.099-1.482,0.372-2.23
				C390.25,764.732,390.91,763.826,390.936,763.789z"/>
				<path display="inline" fill="#4B4B4B" d="M409.203,760.815c-0.367,0-0.668,0.299-0.668,0.668c0,0.059,0.008,0.113,0.023,0.166
				c-0.184,0.166-0.344,0.428-0.338,0.81c0.004,0.197-0.047,0.34-0.154,0.436c-0.084,0.076-0.191,0.115-0.295,0.141
				c-0.787-1.102-1.756-1.775-1.756-1.775l-0.76,0.814c0.574,0.521,1.16,1.174,1.728,1.99c0.395,0.562,0.799,1.289,1.137,2.014
				l1.023-0.486c0,0-0.467-1.154-1.125-2.191c0.113-0.039,0.228-0.102,0.33-0.191c0.201-0.182,0.299-0.438,0.293-0.758
				c-0.002-0.209,0.066-0.35,0.148-0.441c0.115,0.086,0.258,0.143,0.412,0.143c0.371,0,0.67-0.301,0.67-0.67
				C409.873,761.113,409.574,760.815,409.203,760.815z"/>
				<path display="inline" fill="#4B4B4B" d="M406.547,770.016c-1.41,0.688-3.728,1.594-6.782,2.02
				c-1.198,0.166-2.359,0.228-3.428,0.228c-1.391,0-2.62-0.103-3.562-0.223c-1.076-0.137-1.918-0.303-2.432-0.418
				c0.124,0.391,0.273,0.779,0.454,1.158c0.003,0.01,0.008,0.019,0.013,0.027c0.022,0.043,0.043,0.09,0.065,0.133
				c0.021,0.045,0.043,0.088,0.065,0.127c0.006,0.012,0.011,0.023,0.017,0.033c0.303,0.57,0.667,1.096,1.08,1.549
				c1.44,1.576,2.907,1.824,2.921,1.826l0.023,0.004l0.022,0.008c0.013,0.004,1.314,0.424,3.291,0.424
				c1.945,0,3.855-0.393,5.673-1.166c1.348-0.689,2.623-1.736,3.254-2.67c0.488-0.723,0.842-1.494,1.051-2.295
				c0.111-0.426,0.199-1.107,0.146-1.824C408.022,769.223,407.394,769.604,406.547,770.016z"/>
				<path display="inline" fill="#4B4B4B" d="M391.389,764.123c-0.041,0.059-0.652,0.924-1.135,2.252
				c-0.362,0.996-0.346,2.443-0.346,2.461v0.002c0,0.34,0.019,0.678,0.057,1.012c0,0.008,0,0.012,0.002,0.018
				c0.004,0.043,0.011,0.084,0.015,0.127c0.03,0.23,0.069,0.465,0.119,0.701c0.7,0.178,4.878,1.152,9.548,0.502
				c2.927-0.406,5.15-1.272,6.5-1.926c1.121-0.545,1.842-1.037,2.119-1.238c-0.277-1.029-1.041-2.641-1.742-3.646
				c-2.006-2.865-4.168-3.602-5.277-3.783c-0.424-0.07-0.763-0.109-1.244-0.109c-0.447,0-1.002,0.035-1.743,0.113
				c-0.743,0.078-1.572,0.273-2.532,0.596c-1.348,0.451-2.567,1.16-3.527,2.049l-0.033,0.029
				C392.027,763.412,391.73,763.688,391.389,764.123z M403.658,763.455c0.961,0,1.744,0.781,1.744,1.744
				c0,0.961-0.783,1.744-1.744,1.744s-1.742-0.783-1.742-1.744C401.916,764.236,402.697,763.455,403.658,763.455z M395.417,763.387
				c1.557,0,2.817,1.262,2.817,2.816c0,1.557-1.26,2.814-2.817,2.814c-1.555,0-2.816-1.258-2.816-2.814
				C392.601,764.648,393.862,763.387,395.417,763.387z"/>
			</g>
		</g>
	</g>
	<g id="Objects">

		<line fill="none" stroke="#4F3519" stroke-width="3.4665" stroke-linecap="round" stroke-linejoin="round" stroke-miterlimit="10" x1="371.168" y1="467.98" x2="415.31" y2="421.882"/>
		<rect x="394.011" y="415.368" fill="#FFFFFF" stroke="#4F3519" stroke-width="3.4665" stroke-miterlimit="10" width="42.6" height="13.026"/>
		<ellipse opacity="0.1" cx="215.22" cy="566.545" rx="84.731" ry="8.335"/>
		<ellipse opacity="0.1" cx="594.423" cy="566.545" rx="84.731" ry="8.335"/>
		<g>
			<circle fill="#707070" cx="211.882" cy="462.969" r="11.311"/>
			<line fill="none" stroke="#4F3519" stroke-width="3.4665" stroke-miterlimit="10" x1="204.38" y1="371.127" x2="204.38" y2="558.432"/>
			<line fill="none" stroke="#4F3519" stroke-width="3.4665" stroke-miterlimit="10" x1="219.391" y1="371.127" x2="219.391" y2="558.432"/>
			<line fill="none" stroke="#4F3519" stroke-width="3.4665" stroke-miterlimit="10" x1="305.538" y1="455.59" x2="118.227" y2="455.59"/>
			<line fill="none" stroke="#4F3519" stroke-width="3.4665" stroke-miterlimit="10" x1="305.538" y1="470.6" x2="118.227" y2="470.6"/>
			<line fill="none" stroke="#4F3519" stroke-width="3.4665" stroke-miterlimit="10" x1="271.443" y1="392.327" x2="138.996" y2="524.771"/>
			<line fill="none" stroke="#4F3519" stroke-width="3.4665" stroke-miterlimit="10" x1="282.057" y1="402.94" x2="149.612" y2="535.385"/>
			<line fill="none" stroke="#4F3519" stroke-width="3.4665" stroke-miterlimit="10" x1="283.248" y1="523.58" x2="150.804" y2="391.135"/>
			<line fill="none" stroke="#4F3519" stroke-width="3.4665" stroke-miterlimit="10" x1="272.634" y1="534.193" x2="140.188" y2="401.75"/>
			<g>
				<path fill="#FFFFFF" stroke="#4F3519" stroke-width="3.4665" stroke-miterlimit="10" d="M211.882,567.482
				c-57.628,0-104.518-46.884-104.518-104.513c0-57.626,46.89-104.51,104.518-104.51c57.628,0,104.51,46.884,104.51,104.51
				C316.392,520.598,269.509,567.482,211.882,567.482z M211.882,372.937c-49.645,0-90.04,40.388-90.04,90.032
				c0,49.644,40.395,90.033,90.04,90.033c49.644,0,90.032-40.389,90.032-90.033C301.914,413.325,261.525,372.937,211.882,372.937z"
				/>
			</g>
			<g opacity="0.1">
				<path d="M216.204,560.072c-57.627,0-104.518-46.883-104.518-104.512c0-17.622,4.392-34.236,12.128-48.816
				c-10.409,16.244-16.45,35.542-16.45,56.225c0,57.629,46.89,104.513,104.518,104.513c40.002,0,74.821-22.595,92.381-55.689
				C285.672,540.806,253.146,560.072,216.204,560.072z"/>
			</g>
			<path opacity="0.1" d="M209.942,365.362c57.794,0,104.645,51.355,104.645,109.149c0,3.496-0.175,6.95-0.51,10.359
			c1.513-7.066,2.315-14.392,2.315-21.901c0-57.626-46.883-104.51-104.51-104.51c-53.297,0-97.404,40.103-103.734,91.716
			C119.118,404.119,160.527,365.362,209.942,365.362z"/>
			<animateTransform attributeName="transform" begin="0s" dur="20s" type="rotate" from="0 211.882 462.969" to="360 211.882 462.969" repeatCount="indefinite"/>
		</g>
		<g>
			<circle fill="#707070" cx="595.973" cy="462.969" r="11.311"/>
			<line fill="none" stroke="#4F3519" stroke-width="3.4665" stroke-miterlimit="10" x1="588.473" y1="371.127" x2="588.473" y2="558.432"/>
			<line fill="none" stroke="#4F3519" stroke-width="3.4665" stroke-miterlimit="10" x1="603.482" y1="371.127" x2="603.482" y2="558.432"/>
			<line fill="none" stroke="#4F3519" stroke-width="3.4665" stroke-miterlimit="10" x1="689.629" y1="455.59" x2="502.318" y2="455.59"/>
			<line fill="none" stroke="#4F3519" stroke-width="3.4665" stroke-miterlimit="10" x1="689.629" y1="470.6" x2="502.318" y2="470.6"/>
			<line fill="none" stroke="#4F3519" stroke-width="3.4665" stroke-miterlimit="10" x1="655.534" y1="392.327" x2="523.088" y2="524.771"/>
			<line fill="none" stroke="#4F3519" stroke-width="3.4665" stroke-miterlimit="10" x1="666.148" y1="402.94" x2="533.703" y2="535.385"/>
			<line fill="none" stroke="#4F3519" stroke-width="3.4665" stroke-miterlimit="10" x1="667.34" y1="523.58" x2="534.896" y2="391.135"/>
			<line fill="none" stroke="#4F3519" stroke-width="3.4665" stroke-miterlimit="10" x1="656.727" y1="534.193" x2="524.279" y2="401.75"/>
			<g>
				<path fill="#FFFFFF" stroke="#4F3519" stroke-width="3.4665" stroke-miterlimit="10" d="M595.973,567.482
				c-57.627,0-104.518-46.884-104.518-104.513c0-57.626,46.891-104.51,104.518-104.51c57.628,0,104.511,46.884,104.511,104.51
				C700.483,520.598,653.601,567.482,595.973,567.482z M595.973,372.937c-49.644,0-90.039,40.388-90.039,90.032
				c0,49.644,40.396,90.033,90.039,90.033c49.644,0,90.033-40.389,90.033-90.033C686.006,413.325,645.617,372.937,595.973,372.937z"
				/>
			</g>
			<g opacity="0.1">
				<path d="M630.012,546.313c36.365-11.573,62.785-45.664,62.785-85.814c0-49.644-40.389-90.032-90.033-90.032
				c-12.04,0-23.533,2.382-34.042,6.689c8.601-2.737,17.756-4.219,27.251-4.219c49.644,0,90.033,40.388,90.033,90.032
				C686.006,500.574,662.828,532.861,630.012,546.313z"/>
				<path d="M602.764,565.012c-57.627,0-104.518-46.884-104.518-104.513c0-43.84,27.143-81.458,65.501-96.949
				c-41.907,13.616-72.292,53.034-72.292,99.419c0,57.629,46.891,104.513,104.518,104.513c13.787,0,26.954-2.69,39.015-7.561
				C624.833,563.221,614.004,565.012,602.764,565.012z"/>
			</g>
			<animateTransform attributeName="transform" begin="0s" dur="20s" type="rotate" from="0 595.973 462.969" to="360 595.973 462.969" repeatCount="indefinite"/>
		</g>
		<g>
			<path fill="#4F3519" d="M322.978,471.698c-4.595,0-8.319-3.726-8.319-8.32c0-57.054-46.417-103.469-103.47-103.469
			c-42.285,0-79.915,25.302-95.866,64.46c-1.734,4.256-6.589,6.299-10.843,4.566c-4.256-1.733-6.3-6.588-4.566-10.845
			c8.902-21.854,23.934-40.479,43.468-53.862c20.013-13.711,43.461-20.958,67.808-20.958c66.228,0,120.109,53.881,120.109,120.108
			C331.298,467.973,327.573,471.698,322.978,471.698z"/>
		</g>
		<g>
			<path d="M113.142,426.039c-4.244-1.731-6.283-6.571-4.553-10.816c8.878-21.796,23.869-40.372,43.352-53.719
			c8.508-5.83,17.643-10.476,27.2-13.901c-12.678,3.5-24.741,9.077-35.76,16.625c-19.534,13.383-34.565,32.009-43.468,53.862
			c-1.733,4.257,0.31,9.111,4.566,10.845c3.517,1.433,7.439,0.279,9.674-2.565C113.814,426.279,113.476,426.175,113.142,426.039z"/>
			<path d="M322.763,460.389c0-56.9-46.293-103.193-103.195-103.193c-12.556,0-24.694,2.253-35.979,6.426
			c8.837-2.425,18.099-3.712,27.6-3.712c57.053,0,103.47,46.416,103.47,103.469c0,4.595,3.725,8.32,8.319,8.32
			c2.646,0,4.997-1.239,6.521-3.164C325.664,467.804,322.763,464.438,322.763,460.389z"/>
		</g>
		<g>
			<path fill="#4F3519" d="M486.627,495.071c-3.842,0-7.293-2.675-8.128-6.582c-13.846-64.766,27.58-128.721,92.345-142.566
			c23.487-5.021,47.64-2.956,69.84,5.974c4.264,1.714,6.329,6.56,4.614,10.823c-1.715,4.262-6.56,6.326-10.823,4.614
			c-19.113-7.689-39.914-9.466-60.152-5.139c-55.792,11.927-91.479,67.023-79.552,122.816c0.96,4.493-1.903,8.914-6.397,9.875
			C487.788,495.012,487.203,495.071,486.627,495.071z"/>
		</g>
		<g>
			<path d="M583.363,359.493c-4.394,0.939-8.664,2.143-12.801,3.586c1.244-0.314,2.494-0.614,3.76-0.885
			c20.238-4.327,41.039-2.549,60.152,5.139c3.593,1.442,7.59,0.197,9.787-2.779C624.891,356.871,603.847,355.114,583.363,359.493z"
			/>
			<path d="M485.591,488.355c-12.776-59.768,20.581-118.855,75.962-140.055c-59.376,17.703-96.225,78.577-83.054,140.188
			c0.835,3.907,4.286,6.582,8.128,6.582c0.576,0,1.161-0.059,1.747-0.185c0.662-0.142,1.283-0.366,1.867-0.647
			C487.946,493.142,486.164,491.036,485.591,488.355z"/>
			
		</g>
		<path fill="#9EDD54" stroke="#4F3519" stroke-width="3.4665" stroke-linecap="round" stroke-linejoin="round" stroke-miterlimit="10" d="
		M598.911,456.372c-0.214-0.081-21.64-9.115-29.972-47.996c-7.202-33.608-32.016-140.472-32.267-141.548
		c-0.866-3.73-4.593-6.052-8.322-5.185c-3.729,0.866-6.05,4.592-5.184,8.322c0.06,0.257,1.526,6.572,3.817,16.475
		c-6.766,5.75-77.989,66.206-108.306,88.699c-29.118,21.604-67.647,12.452-68.022,12.361c-0.042-0.012-0.086-0.016-0.129-0.025
		l-31.455-92.957c-1.227-3.626-5.163-5.572-8.789-4.345c-3.628,1.228-5.573,5.163-4.345,8.79l9.745,28.798L204.318,460.483
		c-2.462,2.934-2.079,7.306,0.855,9.768c1.299,1.091,2.88,1.621,4.452,1.621c1.979,0,3.944-0.842,5.315-2.476l105.946-126.263
		l42.321,125.068c0.721,2.129,2.428,3.777,4.581,4.42c0.653,0.196,1.322,0.291,1.985,0.291c1.53,0,3.038-0.505,4.271-1.471
		l165.711-129.556c6.231,27.197,12.547,55.031,15.626,69.393c10.039,46.847,37.498,57.639,38.662,58.075
		c0.803,0.302,1.625,0.444,2.434,0.444c2.807,0,5.448-1.718,6.492-4.502C604.315,461.712,602.497,457.717,598.911,456.372z
		M373.207,454.494l-17.615-52.056c4.012,0.534,9.263,1.006,15.316,1.006c15.892,0,37.277-3.255,56.032-17.169
		c27.176-20.162,84.739-68.688,103.558-84.631c1.775,7.695,3.764,16.319,5.832,25.319L373.207,454.494z"/>
		<circle fill="none" stroke="#4F3519" stroke-width="3.4665" stroke-linecap="round" stroke-linejoin="round" stroke-miterlimit="10" cx="371.642" cy="465.358" r="35.357"/>
		<g>
			<path fill="#9EDD54" d="M534.202,288.216c-18.819,15.943-76.731,64.007-103.558,84.631c-26.602,20.45-37.796,23.088-53.688,23.088
			c-6.053,0-21.149-0.473-25.161-1.006l2.473,8.316c2.123,0.123,14.237,0.199,16.64,0.199c15.892,0,37.277-3.255,56.032-17.169
			c27.176-20.162,84.739-68.688,103.558-84.631c1.179,5.107,4.801,21.374,6.128,27.138l5.758-4.502
			C540.315,315.28,535.979,295.911,534.202,288.216z"/>
			<path fill="#9EDD54" d="M524.994,277.841c2.832-2.398,4.814-4.081,5.694-4.829c-1.073-4.641-1.962-8.479-2.614-11.29
			c-3.564,0.984-5.752,4.608-4.907,8.243C523.207,270.136,523.875,273.014,524.994,277.841z"/>
			<path fill="#9EDD54" d="M559.084,397.852c-3.329-14.307-9.393-42.197-15.625-69.394L377.748,458.014
			c-1.233,0.965-2.74,1.47-4.271,1.47c-0.664,0-1.332-0.094-1.985-0.29c-2.153-0.643-3.86-2.291-4.581-4.42L324.59,329.705
			L218.644,455.969c-1.371,1.634-3.336,2.476-5.315,2.476c-1.572,0-3.154-0.53-4.453-1.621c-0.298-0.251-0.563-0.524-0.808-0.811
			l-3.751,4.471c-2.462,2.934-2.079,7.306,0.855,9.768c1.299,1.091,2.88,1.621,4.452,1.621c1.979,0,3.944-0.842,5.315-2.476
			l105.946-126.263l42.321,125.068c0.721,2.129,2.428,3.777,4.581,4.42c0.653,0.196,1.322,0.291,1.985,0.291
			c1.53,0,3.038-0.505,4.271-1.471l165.711-129.556c6.231,27.197,12.547,55.031,15.626,69.393
			c10.039,46.847,37.498,57.639,38.662,58.075c0.803,0.302,1.625,0.444,2.434,0.444c4.664,0,6.492-4.502,6.492-4.502
			S574.44,463.833,559.084,397.852z"/>
			<path fill="#9EDD54" d="M316.209,330.077l5.878-7.005l-10.949-33.122c-0.286,0.058-0.57,0.128-0.853,0.223
			c-3.628,1.228-5.573,5.163-4.345,8.79L316.209,330.077z"/>
		</g>
		<circle fill="none" stroke="#4F3519" stroke-width="3.4665" stroke-linecap="round" stroke-linejoin="round" stroke-miterlimit="10" cx="210.456" cy="465.358" r="23.918"/>
		<line fill="none" stroke="#4F3519" stroke-width="3.4665" stroke-linecap="round" stroke-linejoin="round" stroke-miterlimit="10" x1="210.456" y1="441.44" x2="368.734" y2="430.435"/>
		<line fill="none" stroke="#4F3519" stroke-width="3.4665" stroke-linecap="round" stroke-linejoin="round" stroke-miterlimit="10" x1="371.642" y1="500.715" x2="210.456" y2="489.275"/>
		<g>

			<path fill="#D6D6D6" stroke="#4F3519" stroke-width="3.4665" stroke-linecap="round" stroke-linejoin="round" stroke-miterlimit="10" d="
			M528.884,271.522c-2.442,0-4.764-1.445-5.762-3.842c-1.326-3.181,0.179-6.834,3.358-8.159
			c15.78-6.575,17.867-21.701,14.309-30.342c-4.626-11.236-22.278-16.934-52.464-16.934h-34.317c-3.446,0-6.239-2.793-6.239-6.24
			c0-3.446,2.793-6.24,6.239-6.24h34.317c36.235,0,57.172,8.067,64.005,24.662c3.999,9.718,3.378,20.135-1.751,29.333
			c-4.266,7.648-11.3,13.946-19.299,17.279C530.498,271.366,529.684,271.522,528.884,271.522z"/>
		</g>
		<path fill="none" stroke="#9B542D" stroke-width="13.8661" stroke-linecap="round" stroke-linejoin="round" stroke-miterlimit="10" d="
		M454.114,205.589c0,0,11.438,0,34.316,0"/>
		<g opacity="0.1">
			<path d="M553.358,246.998c-4.267,7.649-11.3,13.947-19.3,17.279c-0.783,0.327-1.597,0.482-2.396,0.482
			c-2.443,0-4.764-1.445-5.762-3.841c-0.129-0.309-0.223-0.623-0.3-0.938c-2.561,1.582-3.675,4.83-2.479,7.7
			c0.998,2.397,3.319,3.842,5.762,3.842c0.8,0,1.614-0.155,2.398-0.482c7.999-3.332,15.033-9.63,19.299-17.279
			c1.314-2.357,2.328-4.794,3.048-7.278C553.535,246.654,553.453,246.828,553.358,246.998z"/>
			<path d="M540.79,229.178c1.515,3.679,2,8.533,0.848,13.403c4.172-6.804,4.158-14.755,1.931-20.165
			c-4.626-11.237-22.279-16.934-52.465-16.934h-34.316c-2.941,0-5.401-2.038-6.061-4.778c-1.772,1.101-2.957,3.06-2.957,5.3
			c0,3.447,2.793,6.24,6.239,6.24h34.317C518.512,212.245,536.164,217.942,540.79,229.178z"/>
			
		</g>
		<g>

			<path fill="#E8E3E4" stroke="#4F3519" stroke-width="3.4665" stroke-linecap="round" stroke-linejoin="round" stroke-miterlimit="10" d="
			M532.001,271.522c-2.638,0-5.089-1.686-5.938-4.332c-1.055-3.281,0.75-6.795,4.03-7.85c3.882-1.261,15.677-6.301,18.751-12.68
			c0.831-1.727,0.892-3.327,0.194-5.187c-3.104-8.279-21.63-13.629-47.193-13.629c-18.389,0-46.284,1.026-46.565,1.036
			c-3.44,0.145-6.338-2.561-6.465-6.004c-0.129-3.444,2.561-6.339,6.004-6.466c0.282-0.01,28.41-1.044,47.026-1.044
			c18.946,0,51.789,2.822,58.878,21.727c1.889,5.037,1.663,10.229-0.65,15.014c-5.96,12.321-24.11,18.456-26.16,19.115
			C533.277,271.424,532.634,271.522,532.001,271.522z"/>
		</g>
		<path fill="none" stroke="#9B542D" stroke-width="19.4126" stroke-linecap="round" stroke-linejoin="round" stroke-miterlimit="10" d="
		M268.906,280.879c0,0,20.798,12.479,50.955,14.559c30.158,2.08,38.477,1.04,38.477,1.04"/>
		<path fill="none" stroke="#9B542D" stroke-width="13.8661" stroke-linecap="round" stroke-linejoin="round" stroke-miterlimit="10" d="
		M455.05,222.645c-0.001,0,16.894-0.626,33.21-0.907"/>
		<g>

			<path fill="#9EDD54" stroke="#4F3519" stroke-width="3.4665" stroke-linecap="round" stroke-linejoin="round" stroke-miterlimit="10" d="
			M410.947,467.755c-3.402,0-6.368-2.505-6.857-5.966c-0.031-0.213-1.173-7.462-5.841-14.436
			c-5.925-8.852-14.869-13.34-26.581-13.34c-34.115,0-81.485,2.12-81.96,2.143c-3.811,0.171-7.065-2.788-7.239-6.613
			c-0.173-3.825,2.789-7.065,6.614-7.238c0.477-0.023,48.161-2.157,82.585-2.157c21.014,0,32.511,10.889,38.453,20.022
			c6.266,9.627,7.647,19.304,7.704,19.711c0.518,3.794-2.135,7.291-5.929,7.81C411.578,467.734,411.261,467.755,410.947,467.755z"/>

		</g>
		<g>

			<path fill="#9EDD54" stroke="#4F3519" stroke-width="3.4665" stroke-linecap="round" stroke-linejoin="round" stroke-miterlimit="10" d="
			M410.947,467.755c-3.402,0-6.368-2.505-6.857-5.966c-0.031-0.213-1.173-7.462-5.841-14.436
			c-5.925-8.852-14.869-13.34-26.581-13.34c-34.115,0-81.485,2.12-81.96,2.143c-3.811,0.171-7.065-2.788-7.239-6.613
			c-0.173-3.825,2.789-7.065,6.614-7.238c0.477-0.023,48.161-2.157,82.585-2.157c21.014,0,32.511,10.889,38.453,20.022
			c6.266,9.627,7.647,19.304,7.704,19.711c0.518,3.794-2.135,7.291-5.929,7.81C411.578,467.734,411.261,467.755,410.947,467.755z"/>
		</g>
		<path fill="#9EDD54" d="M411.103,457.014c-0.033-0.232-1.284-8.176-6.399-15.818c-6.493-9.699-16.293-14.617-29.125-14.617
		c-37.38,0-89.286,2.324-89.806,2.349c-1.149,0.051-2.248-0.164-3.247-0.58c-0.05,0.391-0.074,0.788-0.056,1.195
		c0.173,3.825,3.428,6.784,7.239,6.613c0.475-0.022,47.845-2.143,81.96-2.143c11.712,0,20.656,4.488,26.581,13.34
		c4.668,6.975,5.81,14.224,5.841,14.436c0.488,3.461,3.454,5.966,6.857,5.966c0.313,0,0.631-0.021,0.95-0.065
		c2.541-0.347,4.563-2.032,5.472-4.246C414.186,462.909,411.578,460.375,411.103,457.014z"/>
		<path opacity="0.1" d="M549.038,241.473c0.697,1.86,0.637,3.46-0.194,5.187c-3.074,6.378-14.869,11.419-18.751,12.68
		c-3.27,1.051-5.073,4.548-4.038,7.82c0.224-0.101,0.453-0.193,0.691-0.27c4.041-1.312,28.245-7.64,28.245-25.235
		c0-11.576-19.736-18.857-46.347-18.857c-19.142,0-48.179,1.068-48.47,1.078c-3.582,0.151-6.598-2.666-6.729-6.25
		c-0.014-0.348,0.009-0.688,0.049-1.023c-2.781,0.713-4.791,3.284-4.68,6.271c0.127,3.444,3.024,6.149,6.465,6.004
		c0.281-0.01,28.177-1.036,46.565-1.036C527.408,227.844,545.934,233.194,549.038,241.473z"/>
		<path opacity="0.1" d="M364.665,302.523c-0.502,0.032-3.18,0.161-9.679-0.228c-6.531-0.391-16.921-1.304-32.843-3.364
		c-33.756-4.367-56.394-19.646-57.341-20.295c-1.5-1.027-2.638-2.385-3.392-3.906c-0.297,0.362-0.579,0.742-0.828,1.156
		c-2.758,4.597-1.268,10.559,3.33,13.317c0.931,0.559,23.167,13.704,55.281,15.919c15.148,1.045,25.009,1.32,31.197,1.32
		c6.158,0,8.679-0.273,9.151-0.332c2.71-0.339,5.014-1.768,6.539-3.788C365.619,302.417,365.149,302.492,364.665,302.523z"/>
		<g>

			<path fill="none" stroke="#FFD597" stroke-width="4.6303" stroke-linecap="round" stroke-linejoin="round" stroke-miterlimit="10" d="
			M287.205,284.536c0,0,18.521,8.643,66.059,8.025"/>
		</g>
		<g>

			<line fill="none" stroke="#FFD597" stroke-width="4.6303" stroke-linecap="round" stroke-linejoin="round" stroke-miterlimit="10" x1="461.922" y1="219.661" x2="485.999" y2="219.661"/>
		</g>
		<g>

			<line fill="none" stroke="#FFD597" stroke-width="4.6303" stroke-linecap="round" stroke-linejoin="round" stroke-miterlimit="10" x1="461.922" y1="202.375" x2="485.381" y2="202.375"/>
		</g>
		<g>

			<path fill="none" stroke="#FFD597" stroke-width="4.6303" stroke-linecap="round" stroke-linejoin="round" stroke-miterlimit="10" d="
			M578.606,351.163c0,0,32.721-5.556,58.033,5.556"/>
		</g>
		<g>

			<path fill="none" stroke="#FFD597" stroke-width="4.6303" stroke-linecap="round" stroke-linejoin="round" stroke-miterlimit="10" d="
			M211.885,348.693c0,0,35.808,1.234,61.12,19.138"/>
		</g>
		<path fill="none" stroke="#F1FFD9" stroke-width="4.6303" stroke-linecap="round" stroke-linejoin="round" stroke-miterlimit="10" d="
		M298.935,427.099c0,0,48.773-1.853,69.146-1.853c20.374,0,41.365,14.817,43.834,33.339"/>
		<line fill="none" stroke="#F1FFD9" stroke-width="4.6303" stroke-linecap="round" stroke-linejoin="round" stroke-miterlimit="10" x1="320.543" y1="318.44" x2="342.769" y2="382.647"/>
		<path fill="none" stroke="#F1FFD9" stroke-width="4.6303" stroke-linecap="round" stroke-linejoin="round" stroke-miterlimit="10" d="
		M533.537,283.866c0,0,22.844,96.311,27.782,116.066"/>
		<path fill="none" stroke="#FFFFFF" stroke-width="4.6303" stroke-linecap="round" stroke-linejoin="round" stroke-miterlimit="10" d="
		M531.685,223.363c0,0,24.695,4.321,24.695,18.521"/>
		<path fill="none" stroke="#F1FFD9" stroke-width="4.6303" stroke-linecap="round" stroke-linejoin="round" stroke-miterlimit="10" d="
		M519.338,299.919c0,0-50.006,41.981-74.701,61.12"/>
		<path fill="none" stroke="#F1FFD9" stroke-width="4.6303" stroke-linecap="round" stroke-linejoin="round" stroke-miterlimit="10" d="
		M482.296,376.474c0,0-45.069,36.425-51.859,41.364"/>
		<path fill="none" stroke="#F1FFD9" stroke-width="4.6303" stroke-linecap="round" stroke-linejoin="round" stroke-miterlimit="10" d="
		M578.606,446.854c0,0,8.976,12.427,16.67,15.435"/>
		<g>
		<line fill="none" stroke="#4F3519" stroke-width="3.4665" stroke-linecap="round" stroke-linejoin="round" stroke-miterlimit="10" x1="370.551" y1="467.846" x2="326.408" y2="513.945"/>
		<animateTransform attributeName="transform" begin="0s" dur="20s" type="rotate" from="0 370.551 467.846" to="360 370.551 467.846" repeatCount="indefinite"/>
		</g>
		<g>
		<rect x="305.108" y="507.432" fill="#FFFFFF" stroke="#4F3519" stroke-width="3.4665" stroke-miterlimit="10" width="42.6" height="13.026"/>
		<animateTransform attributeName="transform" begin="0s" dur="20s" type="rotate" from="0 370.551 467.846" to="360 370.551 467.846" repeatCount="indefinite"/>
		</g>
	</g>
</svg>